<svg width="512" height="512" viewBox="0 0 512 512" fill="none" xmlns="http://www.w3.org/2000/svg">
<path d="M512 58.668C512 26.3047 485.695 0 453.332 0H58.668C26.3047 0 0 26.3047 0 58.668V453.332C0 485.695 26.3047 512 58.668 512H453.332C485.695 512 512 485.695 512 453.332V58.668Z" fill="#44B096"/>
<path d="M385.75 171.586C394.09 179.926 394.09 193.406 385.75 201.75L247.082 340.414C242.922 344.574 237.461 346.668 232 346.668C226.539 346.668 221.078 344.574 216.918 340.414L147.586 271.082C139.242 262.742 139.242 249.258 147.586 240.918C155.926 232.574 169.406 232.574 177.75 240.918L232 295.168L355.586 171.586C363.926 163.242 377.406 163.242 385.75 171.586Z" fill="#FAFAFA"/>
</svg>
